<svg id="artwork" xmlns="http://www.w3.org/2000/svg" viewBox="0 0 512 512"><title>Schedule</title><g id="Schedule"><rect x="67.28" y="192.57" width="257.83" height="270.22" style="fill:#c6d0dc"/><path d="M396.37,371.41h0V171H126.21v16H91.78V437.92H345.11V407h58a35.59,35.59,0,0,0,35.58-35.59Z" style="fill:#fff"/><path d="M373,407h30.08a35.59,35.59,0,0,0,35.58-35.59H193.36A35.59,35.59,0,0,1,157.78,407Z" style="fill:#c6d0dc"/><rect x="91.78" y="148.16" width="31.77" height="38.83" style="fill:#f7c648"/><rect x="123.55" y="128.24" width="272.82" height="42.76" style="fill:#f7c648"/><polygon points="284.93 287.89 266.54 269.51 275.03 261.02 284.93 270.92 304.25 251.59 312.74 260.08 284.93 287.89" style="fill:#ef835e"/><path d="M357.85,252.77H321v36.87h36.87Zm-12,24.87H333V264.77h12.87Z"/><path d="M198.94,252.77H162.07v36.87h36.87Zm-12,24.87H174.07V264.77h12.87Z"/><path d="M252,252.77H215.08v36.87H252Zm-12,24.87H227.08V264.77H240Z"/><path d="M357.85,205.2H321v36.87h36.87Zm-12,24.87H333V217.2h12.87Z"/><path d="M198.94,205.2H162.07v36.87h36.87Zm-12,24.87H174.07V217.2h12.87Z"/><path d="M252,205.2H215.08v36.87H252Zm-12,24.87H227.08V217.2H240Z"/><path d="M305,205.2H268.09v36.87H305Zm-12,24.87H280.09V217.2H293Z"/><path d="M321,337.21h36.87V300.34H321Zm12-24.87h12.87v12.87H333Z"/><path d="M162.07,337.21h36.87V300.34H162.07Zm12-24.87h12.87v12.87H174.07Z"/><path d="M215.08,337.21H252V300.34H215.08Zm12-24.87H240v12.87H227.08Z"/><path d="M268.09,337.21H305V300.34H268.09Zm12-24.87H293v12.87H280.09Z"/><path d="M187.44,365.41v6a29,29,0,1,1-57.89,0V177H390.37V349h12V122.24H354.05a28.16,28.16,0,0,0-49.72-11.35,28.14,28.14,0,0,0-44.37,0,28.14,28.14,0,0,0-44.37,0,28.17,28.17,0,0,0-49.73,11.35H117.55v19.92H85.78V443.92H351.11V413h52a41.63,41.63,0,0,0,41.58-41.59v-6ZM326.52,112.06a16.2,16.2,0,0,1,15,10.18h-30A16.19,16.19,0,0,1,326.52,112.06Zm-44.37,0a16.19,16.19,0,0,1,15,10.18h-30A16.19,16.19,0,0,1,282.15,112.06Zm-44.38,0a16.19,16.19,0,0,1,15,10.18h-30A16.2,16.2,0,0,1,237.77,112.06Zm-44.37,0a16.19,16.19,0,0,1,15,10.18h-30A16.2,16.2,0,0,1,193.4,112.06Zm-63.85,22.18h36.31a28.24,28.24,0,0,0,27.54,22.19v-12a16.21,16.21,0,0,1-15-10.19h31.86a28.22,28.22,0,0,0,27.53,22.19v-12a16.21,16.21,0,0,1-15-10.19h31.86a28.23,28.23,0,0,0,27.54,22.19v-12a16.2,16.2,0,0,1-15-10.19H299a28.23,28.23,0,0,0,27.54,22.19v-12a16.2,16.2,0,0,1-15-10.19h78.87V165H129.55ZM97.78,154.16h19.77V181H97.78ZM339.11,431.92H97.78V193h19.77V371.41A41.77,41.77,0,0,0,157.86,413v0H339.11Zm64-30.92H187a41.52,41.52,0,0,0,12-23.59h233.1A29.63,29.63,0,0,1,403.14,401Z"/></g></svg>