<svg xmlns="http://www.w3.org/2000/svg" viewBox="0 0 64 64"><defs><style>.cls-1{fill:#8dd5f6;}.cls-2{fill:#ffe4c2;}.cls-3{fill:#ffc247;}.cls-4{fill:#dfe1ea;}.cls-5{fill:#ffa426;}.cls-6{fill:#bec3d2;}.cls-7{fill:#9196aa;}.cls-8{fill:#fff;}</style></defs><title>7-Check List</title><g id="_7-Check_List" data-name="7-Check List"><polygon class="cls-1" points="13 54 13 61 11 63 7 63 5 61 5 54 13 54"/><polygon class="cls-2" points="9 1 13 9 9 8 5 9 9 1"/><polygon class="cls-3" points="13 9 13 54 5 54 5 9 9 8 13 9"/><rect class="cls-4" x="17" y="1" width="46" height="62" rx="2" ry="2"/><path class="cls-5" d="M9,8,5,9v3.094c3.612.277,5.111,1.111,8,1.579V9Z"/><path class="cls-6" d="M46.6,34c-7.6,0-7.6-2-15.2-2C24.08,32,23.785,33.847,17,33.987V61a2.006,2.006,0,0,0,2,2H61a2.006,2.006,0,0,0,2-2V32.022c-.383-.012-.773-.022-1.2-.022C54.2,32,54.2,34,46.6,34Z"/><rect class="cls-6" x="23" y="7" width="11" height="10" rx="1.204" ry="1.204"/><rect class="cls-6" x="23" y="21" width="11" height="10" rx="1.204" ry="1.204"/><rect class="cls-7" x="23" y="35" width="11" height="10" rx="1.204" ry="1.204"/><rect class="cls-7" x="23" y="49" width="11" height="10" rx="1.204" ry="1.204"/><polygon class="cls-8" points="31 7 31 15 23 15 31 7"/><polygon class="cls-6" points="31 7 23 15 23 7 31 7"/><polygon class="cls-6" points="31 21 31 29 23 29 31 21"/><polygon class="cls-8" points="31 21 23 29 23 21 31 21"/><polygon class="cls-8" points="31 35 31 43 23 43 31 35"/><polygon class="cls-6" points="31 35 23 43 23 35 31 35"/><polygon class="cls-6" points="31 49 31 57 23 57 31 49"/><polygon class="cls-8" points="31 49 23 57 23 49 31 49"/><path d="M31,6H23a1,1,0,0,0-1,1v8a1,1,0,0,0,1,1h8a1,1,0,0,0,1-1V7A1,1,0,0,0,31,6ZM28.586,8,24,12.586V8Zm-3.172,6L30,9.414V14Z"/><path d="M31,20H23a1,1,0,0,0-1,1v8a1,1,0,0,0,1,1h8a1,1,0,0,0,1-1V21A1,1,0,0,0,31,20Zm-2.414,2L24,26.586V22Zm-3.172,6L30,23.414V28Z"/><path d="M31,34H23a1,1,0,0,0-1,1v8a1,1,0,0,0,1,1h8a1,1,0,0,0,1-1V35A1,1,0,0,0,31,34Zm-2.414,2L24,40.586V36Zm-3.172,6L30,37.414V42Z"/><path d="M31,48H23a1,1,0,0,0-1,1v8a1,1,0,0,0,1,1h8a1,1,0,0,0,1-1V49A1,1,0,0,0,31,48Zm-2.414,2L24,54.586V50Zm-3.172,6L30,51.414V56Z"/><path d="M13.9,8.553l-4-8a1.042,1.042,0,0,0-1.79,0l-4,8,.012,0A.983.983,0,0,0,4,9V56H2V34H0V56a1.959,1.959,0,0,0,2,2H4v3a1,1,0,0,0,.293.707l2,2A1,1,0,0,0,7,64h4a1,1,0,0,0,.707-.293l2-2A1,1,0,0,0,14,61V9a.983.983,0,0,0-.117-.442ZM9,3.236,11.133,7.5,9.243,7.03a1,1,0,0,0-.486,0L6.867,7.5ZM12,53H6V9.781l3-.75,3,.75Zm-1.414,9H7.414L6,60.586V55h6v5.586Z"/><rect x="8" y="12" width="2" height="39"/><path d="M61,0H19a3,3,0,0,0-3,3V61a3,3,0,0,0,3,3H61a3,3,0,0,0,3-3V3A3,3,0,0,0,61,0Zm1,61a1,1,0,0,1-1,1H19a1,1,0,0,1-1-1V3a1,1,0,0,1,1-1H61a1,1,0,0,1,1,1Z"/><rect x="35" y="6" width="22" height="2"/><rect x="35" y="11" width="10" height="2"/><rect x="35" y="20" width="22" height="2"/><rect x="35" y="25" width="10" height="2"/><rect x="35" y="34" width="22" height="2"/><rect x="35" y="39" width="10" height="2"/><rect x="35" y="48" width="22" height="2"/><rect x="35" y="53" width="10" height="2"/></g></svg>