<?xml version="1.0" encoding="UTF-8"?>
<!DOCTYPE svg PUBLIC "-//W3C//DTD SVG 1.1//EN" "http://www.w3.org/Graphics/SVG/1.1/DTD/svg11.dtd">
<!-- Creator: CorelDRAW -->
<svg xmlns="http://www.w3.org/2000/svg" xml:space="preserve" width="2048px" height="2048px" style="shape-rendering:geometricPrecision; text-rendering:geometricPrecision; image-rendering:optimizeQuality; fill-rule:evenodd; clip-rule:evenodd"
viewBox="0 0 2048 2048"
 xmlns:xlink="http://www.w3.org/1999/xlink">
 <defs>
  <style type="text/css">
   <![CDATA[
    .fil0 {fill:none}
    .fil3 {fill:#1F3245}
    .fil4 {fill:#2C3E50}
    .fil5 {fill:#2C4D6E}
    .fil6 {fill:#37597A}
    .fil2 {fill:#F1C40F}
    .fil1 {fill:#F39C12}
    .fil7 {fill:#1F3245;fill-rule:nonzero}
   ]]>
  </style>
 </defs>
 <g id="Layer_x0020_1">
  <metadata id="CorelCorpID_0Corel-Layer"/>
  <g id="_393199136">
   <rect id="_393199328" class="fil0" width="2048" height="2048"/>
   <rect id="_393199160" class="fil0" x="255.999" y="255.999" width="1536" height="1536"/>
  </g>
  <g id="_393195896">
   <path id="_393198968" class="fil1" d="M1588.56 1223.41l0 289.943 -132.203 0c-11.7673,0 -22.7917,-4.70079 -31.0855,-13.011 -8.27127,-8.28898 -12.9177,-19.3536 -12.9177,-31.0784l0 -245.854 176.206 0z"/>
   <path id="_393198800" class="fil2" d="M1588.56 933.476l0 289.669 0 0.26811 -176.206 0 0 -0.388583 0 -245.59c0,-11.7366 4.61693,-22.7929 12.8988,-31.0914 7.50119,-7.5189 17.2347,-12.0685 27.7299,-12.874l135.578 0.00708662z"/>
   <path id="_393198632" class="fil3" d="M310.607 1223.41l0 245.854c0,11.7626 4.72323,22.8059 13.0264,31.0949 8.29253,8.27481 19.3335,12.9106 31.063,12.9106 212.654,0 -44.6185,-0.174803 110.9,-0.108662l0 -289.751 -154.989 0z"/>
   <path id="_393198464" class="fil3" d="M1588.56 1223.41l0 289.943 0.105118 0 104.697 0c11.7638,0 22.8059,-4.73741 31.0961,-13.0406 8.2689,-8.28072 12.9319,-19.3299 12.9319,-31.0488l0 -245.854 -148.83 0z"/>
   <polygon id="_393198296" class="fil4" points="1588.56,1223.41 1588.56,1223.14 1588.56,933.476 1588.56,1223.14 "/>
   <polygon id="_393198128" class="fil4" points="1588.56,1223.41 1588.56,1513.36 "/>
   <path id="_393197960" class="fil4" d="M465.513 933.467l4.09607 -34.5862c81.4512,-687.526 1035.85,-666.892 1114.86,0.00354331l4.09725 34.591 0 289.669 0 0.26811 148.83 0 0 -0.167717 0 -245.811c0,-5.17323 -1.00512,-10.2425 -2.82402,-15.0791 -0.930709,-2.46969 -2.08819,-4.84961 -3.44528,-7.11142l-4.0878 -6.81615 -0.297638 -7.94174c-33.4347,-891.65 -1353.01,-930.398 -1399.09,-8.80749l-0.510237 10.2071 -6.4878 7.89568c-2.1378,2.59961 -3.9815,5.4378 -5.47441,8.45434 -2.96693,5.9941 -4.56496,12.5032 -4.56496,19.1988l0 244.837 0 1.14213 154.989 0 0 -1.03583 0 -295.706 -0.0826772 6.79607z"/>
   <path id="_393197792" class="fil5" d="M362.188 1223.41l0 238.283c15.137,0.0153543 30.2941,0.0755906 45.4453,0.0814961 2.09764,-0.131102 4.22363,-0.190158 6.3815,-0.214961l0 -238.149 -51.8268 0z"/>
   <polygon id="_393197624" class="fil5" points="1640.14,1223.41 1640.14,1461.77 1685.81,1461.77 1685.81,1223.41 "/>
   <path id="_393197456" class="fil6" d="M414.014 981.803l-0.675591 -0.0437008 7.38308 -106.945c103.028,-729.262 1129.52,-703.493 1214.97,18.0047l4.45512 37.6134 0 292.748 0 0.232677 45.6674 0 0 -0.20315 0 -243.232 -9.8256 -16.3819 -0.79252 -21.1807c-8.54292,-228.188 -109.879,-427.487 -310.31,-543.58 -172.701,-100.032 -391.007,-118.852 -578.672,-51.3922 -258.918,93.0733 -393.62,318.317 -407.051,586.812l-1.36063 27.2197 -15.613 18.9969 0 241.834 0 1.10669 51.8268 0 0 -1.07126 0 -240.539z"/>
   <path id="_393197288" class="fil1" d="M462.789 1223.41l0 289.943 132.203 0c11.7685,0 22.7917,-4.70079 31.0855,-13.011 8.27127,-8.28898 12.9189,-19.3536 12.9189,-31.0784l0 -245.854 -176.208 0z"/>
   <path id="_393196016" class="fil2" d="M462.789 933.476l0 288.899 0 1.03819 176.208 0 0 -0.917717 0 -245.061c0,-11.7366 -4.61811,-22.7929 -12.9,-31.0914 -7.50119,-7.5189 -17.2347,-12.0685 -27.7299,-12.874l-135.578 0.00708662z"/>
   <path id="_393197072" class="fil7" d="M411.416 1501.64c3.79134,90.5469 34.3784,160.815 101.265,203.6 68.602,43.8839 175.749,60.1571 331.533,41.5914l3.53622 29.9492c-163.089,19.4362 -276.745,1.45158 -351.222,-46.1894 -76.1906,-48.737 -110.969,-127.265 -115.178,-227.772l30.065 -1.17874z"/>
   <path id="_393195776" class="fil4" d="M943.4 1792l0.250394 0 129.168 0c13.3536,0 25.9571,-5.28426 35.3941,-14.7106 9.46182,-9.45237 14.8252,-22.0477 14.8252,-35.4508l0 -42.45c0,-13.3571 -5.29134,-25.9583 -14.726,-35.3941 -9.46182,-9.46654 -22.076,-14.8488 -35.4933,-14.8488l-128.283 0 -1.13504 0 0 142.854z"/>
   <path id="_393196784" class="fil3" d="M822.931 1767.97l9.15119 9.22205c3.11457,3.13937 6.63308,5.86772 10.4539,8.08938 7.56024,4.39843 15.998,6.72166 24.7488,6.72166l76.115 0 0 -142.854 -76.115 0c-11.9693,0 -21.6272,17.8453 -25.911,26.7992 -9.4193,19.6831 -16.3807,43.9914 -21.1559,65.2217l2.71299 26.8004z"/>
  </g>
 </g>
</svg>
