<svg id="artwork" xmlns="http://www.w3.org/2000/svg" viewBox="0 0 512 512"><title>Partnership</title><g id="Partnership"><path d="M358,338.9a125.19,125.19,0,0,0,12.84-31.21L379,276.6l11-11L309.47,185.2l-10,10-29.29,6.33c-10.82,2.34-22.31,4.53-32.84,8.24l-19.66-9.49L207.45,190l-70.93,70.93,10.61,10.62L154.64,302A119.35,119.35,0,0,0,170,337.81l-10.19,10.64c-6.79,6.8-7,17.6-.48,24.13h0c8,9.92,22.31,4.76,22.31,4.76-10.17,7.33-11.14,21.26-4.61,27.79h0c12.94,11.2,30.46-3.91,30.46-3.91-6.8,6.8-7,17.6-.48,24.13s17.33,6.31,24.13-.48l5.59-4.8c-6.8,6.8-7,17.61-.49,24.13s17.33,6.32,24.13-.48l6.08-6.36a16.7,16.7,0,0,0,20.25-26.26l16.2,16.2a16.72,16.72,0,1,0,23.65-23.64l11.64,11.65a16.72,16.72,0,1,0,23.64-23.64L347.2,377a16.46,16.46,0,0,0,23.27-.37h0a16.45,16.45,0,0,0,.37-23.27Z" style="fill:#fff"/><path d="M199.5,283.82s.87,5.86,10.55,9.33a19.83,19.83,0,0,0,19-3.37l10.84-9.13s41.21,9.58,65.21-.52l-22.49-18.94s-31.11,5.19-53.13-5.19Z" style="fill:#c6d0dc"/><path d="M359.9,272.83s0,26.17-14.1,50.49l13.52,13.22s12.51-12.37,19.23-61.41l11.36-11.39L378.68,253.1Z" style="fill:#c6d0dc"/><polygon points="420.95 75.64 501.39 156.09 424.12 233.36 391.82 265.65 311.38 185.21 420.95 75.64" style="fill:#59aee4"/><polygon points="22.71 156.97 103.15 76.53 180.43 153.8 212.72 186.09 132.27 266.54 22.71 156.97" style="fill:#59aee4"/><polygon points="22.71 156.09 35.98 142.81 113.25 220.08 145.55 252.38 132.27 265.65 22.71 156.09" style="fill:#548fbf"/><polygon points="391.82 265.01 378.55 251.73 455.82 174.46 488.12 142.17 501.39 155.44 391.82 265.01" style="fill:#548fbf"/><path d="M509.88,155.44,421,66.51l-118,118.05h0L298.43,189l-27.57,6-4.64,1c-9.15,1.94-18.87,4-28.12,7.19l-16.34-7.89L216.45,190l4.75-4.75-118-118L14.22,156.09l118.05,118,4.76-4.76,5.19,5.19,7.11,28.85a125.31,125.31,0,0,0,13.6,33.45l-7.33,7.34a23.66,23.66,0,0,0-7,16.29,22.18,22.18,0,0,0,20.78,22.75,23.16,23.16,0,0,0-1.54,7.84,22.22,22.22,0,0,0,22.36,22.84,23.27,23.27,0,0,0,6.08-.83,22.21,22.21,0,0,0,22.37,22.31,23.58,23.58,0,0,0,6.95-1.06A22.17,22.17,0,0,0,247.89,455a23.68,23.68,0,0,0,16.75-7l3.51-3.51a23,23,0,0,0,7.42,1.26,22.57,22.57,0,0,0,21.68-16.12l1.95,2a22.88,22.88,0,0,0,16.21,6.71,22.57,22.57,0,0,0,21.78-16.43,22.71,22.71,0,0,0,29.47-2.23,22.77,22.77,0,0,0,0-32.18l-.83-.82A23.18,23.18,0,0,0,382,365a21.87,21.87,0,0,0-6.4-15.91L366,339.59a131.65,131.65,0,0,0,12.52-31l7.71-29.51,5.56-5.57h0Zm-165,4.16,17.81,17.82,8.49-8.49-17.82-17.81L421,83.49l71.95,72-67.63,67.64L384.39,182.2l-8.48,8.48,40.88,40.88-25,25-72-72ZM107.31,232.2l17.82-17.81-8.49-8.49L98.83,223.72,31.19,156.09l72-72,67.64,67.63-40.88,40.88,8.48,8.49,40.88-40.88,25,25-72,72ZM160.6,360.74a11.7,11.7,0,0,1,3.49-8.05l5.56-5.56a123,123,0,0,0,12.52,14.67l1.56,1.56-4.49,4.49c-4.44,4.45-11.46,4.67-15.64.49A10.33,10.33,0,0,1,160.6,360.74Zm22.23,38.2a10.33,10.33,0,0,1-3-7.6,11.7,11.7,0,0,1,3.49-8l10.17-10.17,15.62,15.63-10.43,9.51-.2.19C194,402.9,187,403.12,182.83,398.94Zm28.45,21.48a10.33,10.33,0,0,1-3-7.6,11.68,11.68,0,0,1,3.49-8l6.69-6.69,15.15,15.16-6.69,6.69C222.47,424.39,215.46,424.6,211.28,420.42ZM240.51,440c-4.17-4.18-4-11.2.49-15.64l1.84-1.84L258,437.63l-1.84,1.84C251.71,443.92,244.69,444.14,240.51,440ZM370,364.82a11.09,11.09,0,0,1-10.82,10.81,9.81,9.81,0,0,1-7.22-2.87l-62.56-62.57-8.49,8.49,6.15,6.14h0L312.18,350l31.29,31.28h0l14.66,14.66a10.71,10.71,0,0,1,3.17,7.62,10.59,10.59,0,0,1-3.12,7.58,10.77,10.77,0,0,1-15.21,0l-11.64-11.65h0l-58-58h0l-4.75-4.75-8.49,8.48,62.8,62.8a10.87,10.87,0,0,1,3.2,7.67,10.52,10.52,0,0,1-3.11,7.58,10.8,10.8,0,0,1-15.26-.1l-16.19-16.2h0l-43.79-43.8h0l-4.75-4.74-8.49,8.48,14.68,14.68L283,415.35a10.72,10.72,0,1,1-15.16,15.15l-77.19-77.18A112.76,112.76,0,0,1,161,300.55l-7.91-32.1-7.55-7.56L208,198.45l6.75,6.75,8.92,4.31a58.56,58.56,0,0,0-13,9.69l-33.1,33.1a21.26,21.26,0,0,0-6.21,15.78,23.38,23.38,0,0,0,23.17,22.55,21.3,21.3,0,0,0,15.16-6.2l20.64-20.64a104.67,104.67,0,0,0,49.13,6.45l87.72,87.36A9.89,9.89,0,0,1,370,364.82Zm5.48-91.95-8.53,32.67a119.42,119.42,0,0,1-9.77,25.22l-63.45-63.19a101.12,101.12,0,0,0,14.89-5.16l-4.8-11c-37.93,16.54-71.88.05-72.2-.11l-3.88-2-26.59,26.59c-3.83,3.83-10.34,3.54-14.52-.63a11.15,11.15,0,0,1-3.33-7.56,9.33,9.33,0,0,1,2.69-7l33.1-33.11c12-12,31.12-16,49.63-20l4.69-1,31-6.7,7-7,72,72Z"/><path d="M189.39,131,184.49,120a188.16,188.16,0,0,1,22.24-8.31l3.48,11.48A176.7,176.7,0,0,0,189.39,131Zm142.91-1a176.24,176.24,0,0,0-20.94-7.49l3.32-11.53a188.2,188.2,0,0,1,22.36,8ZM229,118.57l-2.21-11.79a191.49,191.49,0,0,1,23.55-2.91l.73,12A179,179,0,0,0,229,118.57Zm63.53-.44a177.73,177.73,0,0,0-22.11-2.41l.56-12a191.82,191.82,0,0,1,23.59,2.57Z" style="fill:#f7c648"/><path d="M262.5,483.89c-5.27-.14-10.61-.5-15.88-1.07-2.58-.28-5.18-.62-7.75-1L240.65,470c2.41.36,4.85.68,7.27.94,4.94.54,10,.88,14.89,1Zm20.63-.59-1-12a177.4,177.4,0,0,0,22-3.23l2.48,11.74A187.41,187.41,0,0,1,283.13,483.3Zm-64.46-5.64a190.49,190.49,0,0,1-22.53-7.46l4.48-11.13a176.13,176.13,0,0,0,21.1,7Zm107.87-3.18-3.75-11.4a178.89,178.89,0,0,0,20.63-8.26l5.14,10.84A190,190,0,0,1,326.54,474.48Zm-149.11-13a188.16,188.16,0,0,1-20.18-12.51l6.95-9.78a176.9,176.9,0,0,0,18.9,11.72Zm189.26-5.64-6.29-10.22a180.73,180.73,0,0,0,18.18-12.8l7.5,9.36A190.62,190.62,0,0,1,366.69,455.81ZM141.1,436.09a189.81,189.81,0,0,1-16.73-16.83l9-7.91a179.4,179.4,0,0,0,15.67,15.77Zm260.36-7.7-8.47-8.5a177.7,177.7,0,0,0,14.74-16.65l9.46,7.38A189.36,189.36,0,0,1,401.46,428.39ZM111.62,403a192,192,0,0,1-12.4-20.22l10.6-5.63a178.36,178.36,0,0,0,11.62,18.95ZM429,393.67l-10.21-6.3a177.52,177.52,0,0,0,10.48-19.62l10.92,5A189.56,189.56,0,0,1,429,393.67ZM90.55,364.09a190,190,0,0,1-7.37-22.53l11.61-3a177.67,177.67,0,0,0,6.91,21.11Zm357.14-10.6-11.4-3.75a180.27,180.27,0,0,0,5.61-21.51l11.78,2.3A192.14,192.14,0,0,1,447.69,353.49ZM79.1,321.32a190.59,190.59,0,0,1-1.93-23.64l12-.23A178.13,178.13,0,0,0,91,319.6ZM456.54,310.1l-12-1c.44-5.11.66-10.29.66-15.4,0-2.29-.05-4.58-.13-6.83l12-.46c.09,2.4.14,4.85.14,7.28C457.25,299.12,457,304.65,456.54,310.1Zm-366.69-32L77.9,277.05c.11-1.24.23-2.48.37-3.73a191.9,191.9,0,0,1,3.19-19.72l11.73,2.53a178.89,178.89,0,0,0-3,18.49C90.07,275.79,90,277,89.85,278.12Zm353.47-10.53a175,175,0,0,0-4.65-21.73l11.56-3.25a189.54,189.54,0,0,1,5,23.22Z" style="fill:#f7c648"/></g></svg>