<svg id="artwork" xmlns="http://www.w3.org/2000/svg" viewBox="0 0 512 512"><title>Statistics</title><g id="Statistics"><rect x="254.89" y="379.75" width="13.57" height="72.67" style="fill:#c6d0dc"/><rect x="81.64" y="348.22" width="380.21" height="30.98" style="fill:#59aee4"/><rect x="102.48" y="99.64" width="340.44" height="248.04" style="fill:#fff"/><rect x="99.56" y="328.52" width="341.16" height="21.92" style="fill:#c6d0dc"/><rect x="81.64" y="348.77" width="380.21" height="15.49" style="fill:#548fbf"/><rect x="324.26" y="205.23" width="27.14" height="103.81" style="fill:#ef835e"/><path d="M168.62,315.65h39.14V262.21H168.62Zm12-41.44h15.14v29.44H180.62Z"/><path d="M218.13,315.65h39.14v-74H218.13Zm12-62h15.14v50H230.13Z"/><path d="M267.64,315.65h39.14V220.21H267.64Zm12-83.44h15.14v71.44H279.64Z"/><path d="M318.26,315.93H357.4V198.76H318.26Zm12-105.17H345.4v93.17H330.26Z"/><rect x="375.68" y="266.14" width="35.31" height="12"/><rect x="375.68" y="284.93" width="35.31" height="12"/><rect x="375.68" y="303.73" width="35.31" height="12"/><rect x="131.23" y="152.71" width="12" height="163"/><polygon points="274.33 179.85 288.6 194.12 335.62 147.11 335.53 166.01 347.53 166.07 347.71 127.13 308.42 126.94 308.36 138.94 326.73 139.03 288.6 177.15 274.33 162.88 231.37 205.84 217.84 192.3 174.16 235.97 182.65 244.46 217.84 209.27 231.37 222.81 274.33 179.85"/><path d="M467.85,385.75v-43H448.91v-248H94.58v248H75.64v43H265.75v60.67H178.38v12H365.11v-12H277.75V385.75Zm-361.27-279H436.91v236H106.58Zm-18.94,267v-19H455.85v19Z"/></g></svg>