<svg id="artwork" xmlns="http://www.w3.org/2000/svg" viewBox="0 0 512 512"><title>Connection</title><g id="Connection"><path d="M314.12,225.18H205.35V143.92a23.85,23.85,0,0,1,23.85-23.85h61.07a23.85,23.85,0,0,1,23.85,23.85Z" style="fill:#ef835e"/><circle cx="258.97" cy="75.61" r="28.46" transform="translate(125.2 309.9) rotate(-76.55)" style="fill:#fff"/><polygon points="258.97 147.71 281.29 120.44 236.65 120.44 258.97 147.71" style="fill:#fff"/><path d="M99.52,297.07h61.07a23.85,23.85,0,0,1,23.85,23.85v81.25a0,0,0,0,1,0,0H75.67a0,0,0,0,1,0,0V320.92A23.85,23.85,0,0,1,99.52,297.07Z" style="fill:#f7c648"/><polygon points="130.17 324.7 152.49 297.44 107.84 297.44 130.17 324.7" style="fill:#fff"/><circle cx="130.17" cy="252.61" r="28.46" transform="translate(-140.5 166.03) rotate(-45)" style="fill:#fff"/><path d="M442.28,398.05H333.51V316.79a23.85,23.85,0,0,1,23.85-23.85h61.07a23.85,23.85,0,0,1,23.85,23.85Z" style="fill:#59aee4"/><polygon points="388.01 320.16 410.33 292.89 365.69 292.89 388.01 320.16" style="fill:#fff"/><circle cx="388.01" cy="247.57" r="28.46" transform="translate(-61.41 346.88) rotate(-45)" style="fill:#fff"/><path d="M259.09,110.07a34.46,34.46,0,1,0-34.46-34.46A34.5,34.5,0,0,0,259.09,110.07Zm0-56.92a22.46,22.46,0,1,1-22.46,22.46A22.49,22.49,0,0,1,259.09,53.15Z"/><path d="M289.62,114.07H228.55a29.88,29.88,0,0,0-29.85,29.85v87.26H319.47V143.92A29.88,29.88,0,0,0,289.62,114.07Zm-19.49,12-11,12.83-11.17-12.83Zm37.34,93.11H295V151.93H283v67.25H236.51V151.13h-12v68.05H210.7V143.92a17.87,17.87,0,0,1,17.85-17.85H232l27.15,31.17L286,126.07h3.67a17.87,17.87,0,0,1,17.85,17.85Z"/><path d="M130.17,287.07A34.46,34.46,0,1,0,95.7,252.61,34.5,34.5,0,0,0,130.17,287.07Zm0-56.92a22.46,22.46,0,1,1-22.47,22.46A22.49,22.49,0,0,1,130.17,230.15Z"/><path d="M160.7,291.07H99.63a29.88,29.88,0,0,0-29.85,29.85v87.26H190.55V320.92A29.88,29.88,0,0,0,160.7,291.07Zm-19.49,12-11,12.83L119,303.07Zm37.34,93.11H166V328.93H154v67.25H107.59V328.13h-12v68.05H81.78V320.92a17.87,17.87,0,0,1,17.85-17.85h3.48l27.14,31.17L157,303.07h3.67a17.87,17.87,0,0,1,17.85,17.85Z"/><path d="M388,282a34.46,34.46,0,1,0-34.46-34.46A34.5,34.5,0,0,0,388,282Zm0-56.92a22.46,22.46,0,1,1-22.46,22.46A22.49,22.49,0,0,1,388,225.11Z"/><path d="M418.54,286H357.47a29.88,29.88,0,0,0-29.85,29.85v87.26H448.39V315.88A29.88,29.88,0,0,0,418.54,286Zm-19.49,12-11,12.83L376.86,298Zm37.34,93.11H423.88V323.89h-12v67.25H365.43V323.09h-12v68.05H339.62V315.88A17.87,17.87,0,0,1,357.47,298H361l27.15,31.18L414.87,298h3.67a17.87,17.87,0,0,1,17.85,17.85Z"/><path d="M262.84,453.72c-3,0-6-.07-9-.21l.56-12a179.21,179.21,0,0,0,22.24-.33l.93,12C272.66,453.53,267.72,453.72,262.84,453.72Zm-29.58-2.28a191.78,191.78,0,0,1-23.18-5.06l3.28-11.54a179.68,179.68,0,0,0,21.73,4.74Zm64.72-1-2.22-11.8a179.5,179.5,0,0,0,21.56-5.45L321,444.63A191.71,191.71,0,0,1,298,450.46ZM190.56,439.67a190.05,190.05,0,0,1-21.39-10.27L175,418.92a175.59,175.59,0,0,0,20,9.63Zm149.7-2.4-4.88-11A179.25,179.25,0,0,0,355.11,416l6.19,10.28A192.62,192.62,0,0,1,340.26,437.27Z" style="fill:#ef835e"/><path d="M450.6,261.8l-12-.05v-.91a180.13,180.13,0,0,0-1.27-21.3l11.92-1.42a193.49,193.49,0,0,1,1.35,22.72ZM434,220.49a177.47,177.47,0,0,0-6.35-21.28l11.27-4.14a189.35,189.35,0,0,1,6.77,22.72Zm-14-39A179.7,179.7,0,0,0,409,162.18l10-6.62a192.32,192.32,0,0,1,11.83,20.56Zm-22.61-34.8a179.5,179.5,0,0,0-15.21-16.23l8.23-8.73A192.12,192.12,0,0,1,406.67,139Zm-30-28.73a180.82,180.82,0,0,0-18.52-12.31l6-10.39a191.5,191.5,0,0,1,19.77,13.14ZM331.68,96.84a180.56,180.56,0,0,0-20.87-7.69l3.44-11.5a190,190,0,0,1,22.28,8.22Z" style="fill:#ef835e"/><path d="M68.78,262.13v-1a191.23,191.23,0,0,1,1.35-22.72L82,239.87a180.13,180.13,0,0,0-1.26,21.3v.9Zm16.59-41.31-11.69-2.7a189.35,189.35,0,0,1,6.77-22.72l11.26,4.13A178.12,178.12,0,0,0,85.37,220.82Zm14-39L88.6,176.45a192.32,192.32,0,0,1,11.83-20.56l10,6.62A179.7,179.7,0,0,0,99.35,181.78ZM122,147l-9.24-7.65A193.65,193.65,0,0,1,128.93,122l8.24,8.73A182.28,182.28,0,0,0,122,147Zm30-28.72-7.24-9.56a192.45,192.45,0,0,1,19.76-13.14l6,10.39A181,181,0,0,0,151.93,118.25Zm35.78-21.08-4.85-11A189.89,189.89,0,0,1,205.13,78l3.45,11.5A179.2,179.2,0,0,0,187.71,97.17Z" style="fill:#ef835e"/></g></svg>