<?xml version="1.0" standalone="no"?>
<!DOCTYPE svg PUBLIC "-//W3C//DTD SVG 20010904//EN"
 "http://www.w3.org/TR/2001/REC-SVG-20010904/DTD/svg10.dtd">
<svg version="1.0" xmlns="http://www.w3.org/2000/svg"
 width="1080.000000pt" height="1080.000000pt" viewBox="0 0 1080.000000 1080.000000"
 preserveAspectRatio="xMidYMid meet">
<metadata>
Created by potrace 1.14, written by Peter Selinger 2001-2017
</metadata>
<g transform="translate(0.000000,1080.000000) scale(0.100000,-0.100000)"
fill="#000000" stroke="none">
<path d="M0 5400 l0 -5400 5400 0 5400 0 0 5400 0 5400 -5400 0 -5400 0 0
-5400z m5810 3566 c767 -106 1428 -425 1969 -951 404 -393 697 -862 875 -1400
73 -220 131 -497 156 -744 15 -153 12 -519 -5 -689 -119 -1136 -809 -2152
-1827 -2686 -960 -504 -2103 -525 -3085 -56 -975 466 -1683 1378 -1892 2435
-90 456 -84 967 15 1415 117 524 339 984 687 1423 104 132 382 410 522 521
435 347 935 581 1478 690 104 21 274 45 422 60 96 9 575 -3 685 -18z"/>
<path d="M5120 8650 c-610 -58 -1134 -259 -1619 -622 -160 -120 -436 -389
-559 -545 -382 -484 -607 -1049 -662 -1662 -18 -189 -8 -545 20 -726 147 -966
712 -1785 1567 -2269 701 -396 1585 -498 2372 -271 1102 317 1950 1226 2185
2341 52 248 60 339 61 649 0 253 -3 310 -24 445 -100 666 -388 1251 -850 1724
-505 517 -1130 830 -1844 922 -145 18 -513 26 -647 14z m374 -964 c18 -8 44
-29 58 -47 14 -19 431 -772 926 -1674 691 -1256 905 -1653 914 -1695 9 -46 8
-64 -6 -114 -24 -80 -113 -172 -199 -204 -149 -56 -251 -48 -414 34 -110 56
-115 57 -210 61 -110 5 -185 -12 -258 -59 -22 -15 -159 -138 -305 -273 -289
-270 -324 -295 -453 -315 -112 -17 -245 15 -327 80 -22 17 -112 125 -200 240
-88 114 -173 219 -190 233 -16 14 -56 38 -87 53 -49 24 -74 29 -161 32 -134 6
-155 -2 -426 -149 -274 -150 -310 -163 -434 -156 -81 4 -102 9 -167 41 -148
73 -220 201 -184 329 8 31 1886 3457 1937 3535 35 53 121 75 186 48z"/>
</g>
</svg>
